<svg xmlns="http://www.w3.org/2000/svg" xmlns:xlink="http://www.w3.org/1999/xlink" viewBox="0 0 600 500" width="600"
    height="500" preserveAspectRatio="xMidYMid meet"
    style="width: 100%; height: 100%; transform: translate3d(0px, 0px, 0px); content-visibility: visible;">
    <defs>
        <clipPath id="__lottie_element_8775">
            <rect width="600" height="500" x="0" y="0"></rect>
        </clipPath>
        <radialGradient id="__lottie_element_8780" spreadMethod="pad" gradientUnits="userSpaceOnUse"
            cx="2.816999912261963" cy="-3.683000087738037" r="39.05972079912163" fx="14.38394167656739"
            fy="-16.116050394214497">
            <stop offset="0%" stop-color="rgb(217,199,184)"></stop>
            <stop offset="22%" stop-color="rgb(217,199,184)"></stop>
            <stop offset="36%" stop-color="rgb(217,199,184)"></stop>
            <stop offset="68%" stop-color="rgb(178,160,145)"></stop>
            <stop offset="100%" stop-color="rgb(140,122,105)"></stop>
        </radialGradient>
    </defs>
    <g clip-path="url(#__lottie_element_8775)">
        <g transform="matrix(1.399999976158142,0,0,1.399999976158142,228,342)" opacity="1" style="display: block;">
            <g opacity="1"
                transform="matrix(0.8660253882408142,0.5,0,0.9999938011169434,116.20429229736328,-68.49464416503906)">
                <g opacity="1" transform="matrix(1,0,0,1,9,-49)">
                    <path fill="rgb(13,0,0)" fill-opacity="1"
                        d=" M82.5,-62 C82.5,-62 90,-8.5 90,0.5 C90,9.5 82.5,112 82.5,112 C82.5,115.31400299072266 79.81400299072266,118 76.5,118 C76.5,118 -76.5,118 -76.5,118 C-79.81400299072266,118 -82.5,115.31400299072266 -82.5,112 C-82.5,112 -89.48999786376953,21.85099983215332 -90,3.5 C-90.5,-14.5 -82.5,-62 -82.5,-62 C-82.5,-65.31400299072266 -79.81400299072266,-68 -76.5,-68 C-76.5,-68 76.5,-68 76.5,-68 C79.81400299072266,-68 82.5,-65.31400299072266 82.5,-62z">
                    </path>
                    <path stroke-linecap="butt" stroke-linejoin="miter" fill-opacity="0" stroke-miterlimit="4"
                        stroke="rgb(64,60,52)" stroke-opacity="1" stroke-width="1"
                        d=" M82.5,-62 C82.5,-62 90,-8.5 90,0.5 C90,9.5 82.5,112 82.5,112 C82.5,115.31400299072266 79.81400299072266,118 76.5,118 C76.5,118 -76.5,118 -76.5,118 C-79.81400299072266,118 -82.5,115.31400299072266 -82.5,112 C-82.5,112 -89.48999786376953,21.85099983215332 -90,3.5 C-90.5,-14.5 -82.5,-62 -82.5,-62 C-82.5,-65.31400299072266 -79.81400299072266,-68 -76.5,-68 C-76.5,-68 76.5,-68 76.5,-68 C79.81400299072266,-68 82.5,-65.31400299072266 82.5,-62z">
                    </path>
                </g>
            </g>
            <g opacity="1"
                transform="matrix(0.8660253882408142,-0.5,0.8660200238227844,0.4999969005584717,70.88787841796875,-36.749778747558594)">
                <g opacity="1" transform="matrix(1,0,0,1,-76.28299713134766,71.21700286865234)">
                    <path fill="rgb(13,0,0)" fill-opacity="1"
                        d=" M65,-79.5 C65,-79.5 65,79.5 65,79.5 C65,79.5 -65,79.5 -65,79.5 C-65,79.5 -65,-79.5 -65,-79.5 C-65,-79.5 65,-79.5 65,-79.5z">
                    </path>
                    <path stroke-linecap="butt" stroke-linejoin="miter" fill-opacity="0" stroke-miterlimit="4"
                        stroke="rgb(64,60,52)" stroke-opacity="1" stroke-width="1"
                        d=" M65,-79.5 C65,-79.5 65,79.5 65,79.5 C65,79.5 -65,79.5 -65,79.5 C-65,79.5 -65,-79.5 -65,-79.5 C-65,-79.5 65,-79.5 65,-79.5z">
                    </path>
                </g>
            </g>
            <g opacity="1" transform="matrix(1,0,0,1,0,0)">
                <path fill="rgb(13,0,0)" fill-opacity="1"
                    d=" M191.93800354003906,-141.31199645996094 C191.25,-140.81199645996094 190.343994140625,-140.218994140625 190.343994140625,-140.218994140625 C190.343994140625,-140.218994140625 77,-76.5 77,-76.5 C77,-76.5 79,109 79,109 C79,109 192,43.5 192,43.5 C192,43.5 195.23800659179688,43.48699951171875 195.5,40.75 C197.25,22.5 202,-56.5 202,-67.25 C202,-78 196.75,-123.31199645996094 195.56199645996094,-133.56199645996094 C195.04400634765625,-138.03199768066406 192.87600708007812,-140.93699645996094 191.93800354003906,-141.31199645996094z">
                </path>
                <path stroke-linecap="butt" stroke-linejoin="miter" fill-opacity="0" stroke-miterlimit="4"
                    stroke="rgb(64,60,52)" stroke-opacity="1" stroke-width="1"
                    d=" M191.93800354003906,-141.31199645996094 C191.25,-140.81199645996094 190.343994140625,-140.218994140625 190.343994140625,-140.218994140625 C190.343994140625,-140.218994140625 77,-76.5 77,-76.5 C77,-76.5 79,109 79,109 C79,109 192,43.5 192,43.5 C192,43.5 195.23800659179688,43.48699951171875 195.5,40.75 C197.25,22.5 202,-56.5 202,-67.25 C202,-78 196.75,-123.31199645996094 195.56199645996094,-133.56199645996094 C195.04400634765625,-138.03199768066406 192.87600708007812,-140.93699645996094 191.93800354003906,-141.31199645996094z">
                </path>
            </g>
            <g opacity="1"
                transform="matrix(0.8660253882408142,-0.5,0.8660200238227844,0.4999969005584717,70.88787841796875,-222.74978637695312)">
                <g opacity="1" transform="matrix(1,0,0,1,-76.28299713134766,71.21700286865234)">
                    <path fill="rgb(13,0,0)" fill-opacity="1"
                        d=" M65,-79.5 C65,-79.5 65,79.5 65,79.5 C65,79.5 -65,79.5 -65,79.5 C-65,79.5 -65,-79.5 -65,-79.5 C-65,-79.5 65,-79.5 65,-79.5z">
                    </path>
                    <path stroke-linecap="butt" stroke-linejoin="miter" fill-opacity="0" stroke-miterlimit="4"
                        stroke="rgb(64,60,52)" stroke-opacity="1" stroke-width="1"
                        d=" M65,-79.5 C65,-79.5 65,79.5 65,79.5 C65,79.5 -65,79.5 -65,79.5 C-65,79.5 -65,-79.5 -65,-79.5 C-65,-79.5 65,-79.5 65,-79.5z">
                    </path>
                </g>
            </g>
            <g opacity="1"
                transform="matrix(0.8660253882408142,0.5,0,0.9999938011169434,1.2042975425720215,-4.494647979736328)">
                <g opacity="1" transform="matrix(1,0,0,1,9,-49)">
                    <path fill="rgb(13,0,0)" fill-opacity="1"
                        d=" M82.5,-62 C82.5,-62 90,-8.5 90,0.5 C90,9.5 82.5,112 82.5,112 C82.5,115.31400299072266 79.81400299072266,118 76.5,118 C76.5,118 -76.5,118 -76.5,118 C-79.81400299072266,118 -82.5,115.31400299072266 -82.5,112 C-82.5,112 -89.48999786376953,21.85099983215332 -90,3.5 C-90.5,-14.5 -82.5,-62 -82.5,-62 C-82.5,-65.31400299072266 -79.81400299072266,-68 -76.5,-68 C-76.5,-68 76.5,-68 76.5,-68 C79.81400299072266,-68 82.5,-65.31400299072266 82.5,-62z">
                    </path>
                    <path stroke-linecap="butt" stroke-linejoin="miter" fill-opacity="0" stroke-miterlimit="4"
                        stroke="rgb(64,60,52)" stroke-opacity="1" stroke-width="1"
                        d=" M82.5,-62 C82.5,-62 90,-8.5 90,0.5 C90,9.5 82.5,112 82.5,112 C82.5,115.31400299072266 79.81400299072266,118 76.5,118 C76.5,118 -76.5,118 -76.5,118 C-79.81400299072266,118 -82.5,115.31400299072266 -82.5,112 C-82.5,112 -89.48999786376953,21.85099983215332 -90,3.5 C-90.5,-14.5 -82.5,-62 -82.5,-62 C-82.5,-65.31400299072266 -79.81400299072266,-68 -76.5,-68 C-76.5,-68 76.5,-68 76.5,-68 C79.81400299072266,-68 82.5,-65.31400299072266 82.5,-62z">
                    </path>
                </g>
                <g opacity="1" transform="matrix(1,0,0,1,9,-49)">
                    <path fill="rgb(217,199,184)" fill-opacity="1"
                        d=" M76.5,-63 C76.5,-63 80.5,0.5 80.5,0.5 C80.5,0.5 76.5,63 76.5,63 C76.5,63 -76.5,63 -76.5,63 C-76.5,63 -80.5,0 -80.5,0 C-80.5,0 -76.5,-63 -76.5,-63 C-76.5,-63 76.5,-63 76.5,-63z">
                    </path>
                    <path stroke-linecap="butt" stroke-linejoin="miter" fill-opacity="0" stroke-miterlimit="4"
                        stroke="rgb(224,224,224)" stroke-opacity="1" stroke-width="0"
                        d=" M76.5,-63 C76.5,-63 80.5,0.5 80.5,0.5 C80.5,0.5 76.5,63 76.5,63 C76.5,63 -76.5,63 -76.5,63 C-76.5,63 -80.5,0 -80.5,0 C-80.5,0 -76.5,-63 -76.5,-63 C-76.5,-63 76.5,-63 76.5,-63z">
                    </path>
                </g>
                <g opacity="1" transform="matrix(1,0,0,1,9,41)">
                    <path fill="rgb(217,199,184)" fill-opacity="1"
                        d=" M76.5,-20 C76.5,-20 71.5,20 71.5,20 C71.5,20 -71.5,20 -71.5,20 C-71.5,20 -76.5,-20 -76.5,-20 C-76.5,-20 76.5,-20 76.5,-20z">
                    </path>
                    <path stroke-linecap="butt" stroke-linejoin="miter" fill-opacity="0" stroke-miterlimit="4"
                        stroke="rgb(224,224,224)" stroke-opacity="1" stroke-width="0"
                        d=" M76.5,-20 C76.5,-20 71.5,20 71.5,20 C71.5,20 -71.5,20 -71.5,20 C-71.5,20 -76.5,-20 -76.5,-20 C-76.5,-20 76.5,-20 76.5,-20z">
                    </path>
                </g>
                <g opacity="1" transform="matrix(1,0,0,1,9,42.5)">
                    <path fill="rgb(64,60,52)" fill-opacity="1"
                        d=" M33,-1 C33,-1 33,1 33,1 C33,1 -33,1 -33,1 C-33,1 -33,-1 -33,-1 C-33,-1 33,-1 33,-1z"></path>
                    <path stroke-linecap="butt" stroke-linejoin="miter" fill-opacity="0" stroke-miterlimit="4"
                        stroke="rgb(224,224,224)" stroke-opacity="1" stroke-width="0"
                        d=" M33,-1 C33,-1 33,1 33,1 C33,1 -33,1 -33,1 C-33,1 -33,-1 -33,-1 C-33,-1 33,-1 33,-1z"></path>
                </g>
                <g opacity="1" transform="matrix(1,0,0,1,9,47.5)">
                    <path fill="rgb(64,60,52)" fill-opacity="1"
                        d=" M33,-1 C33,-1 33,1 33,1 C33,1 -33,1 -33,1 C-33,1 -33,-1 -33,-1 C-33,-1 33,-1 33,-1z"></path>
                    <path stroke-linecap="butt" stroke-linejoin="miter" fill-opacity="0" stroke-miterlimit="4"
                        stroke="rgb(224,224,224)" stroke-opacity="1" stroke-width="0"
                        d=" M33,-1 C33,-1 33,1 33,1 C33,1 -33,1 -33,1 C-33,1 -33,-1 -33,-1 C-33,-1 33,-1 33,-1z"></path>
                </g>
                <g opacity="1" transform="matrix(1,0,0,1,9,37.5)">
                    <path fill="rgb(64,60,52)" fill-opacity="1"
                        d=" M33,-1 C33,-1 33,1 33,1 C33,1 -33,1 -33,1 C-33,1 -33,-1 -33,-1 C-33,-1 33,-1 33,-1z"></path>
                    <path stroke-linecap="butt" stroke-linejoin="miter" fill-opacity="0" stroke-miterlimit="4"
                        stroke="rgb(224,224,224)" stroke-opacity="1" stroke-width="0"
                        d=" M33,-1 C33,-1 33,1 33,1 C33,1 -33,1 -33,1 C-33,1 -33,-1 -33,-1 C-33,-1 33,-1 33,-1z"></path>
                </g>
                <g opacity="1" transform="matrix(1,0,0,1,9,-49)">
                    <path fill="rgb(242,242,242)" fill-opacity="1"
                        d=" M66.66649627685547,-33 C66.66649627685547,-33 66.66649627685547,33 66.66649627685547,33 C66.66649627685547,42.382301330566406 59.048797607421875,50 49.66649627685547,50 C49.66649627685547,50 -49.66649627685547,50 -49.66649627685547,50 C-59.048797607421875,50 -66.66649627685547,42.382301330566406 -66.66649627685547,33 C-66.66649627685547,33 -66.66649627685547,-33 -66.66649627685547,-33 C-66.66649627685547,-42.382301330566406 -59.048797607421875,-50 -49.66649627685547,-50 C-49.66649627685547,-50 49.66649627685547,-50 49.66649627685547,-50 C59.048797607421875,-50 66.66649627685547,-42.382301330566406 66.66649627685547,-33z">
                    </path>
                    <path stroke-linecap="butt" stroke-linejoin="miter" fill-opacity="0" stroke-miterlimit="4"
                        stroke="rgb(13,0,0)" stroke-opacity="1" stroke-width="3"
                        d=" M66.66649627685547,-33 C66.66649627685547,-33 66.66649627685547,33 66.66649627685547,33 C66.66649627685547,42.382301330566406 59.048797607421875,50 49.66649627685547,50 C49.66649627685547,50 -49.66649627685547,50 -49.66649627685547,50 C-59.048797607421875,50 -66.66649627685547,42.382301330566406 -66.66649627685547,33 C-66.66649627685547,33 -66.66649627685547,-33 -66.66649627685547,-33 C-66.66649627685547,-42.382301330566406 -59.048797607421875,-50 -49.66649627685547,-50 C-49.66649627685547,-50 49.66649627685547,-50 49.66649627685547,-50 C59.048797607421875,-50 66.66649627685547,-42.382301330566406 66.66649627685547,-33z">
                    </path>
                </g>
                <g opacity="1" transform="matrix(1,0,0,1,67.38700103759766,39.80699920654297)">
                    <path fill="rgb(13,0,0)" fill-opacity="1"
                        d=" M0,-10.5 C5.794950008392334,-10.5 10.5,-5.794950008392334 10.5,0 C10.5,5.794950008392334 5.794950008392334,10.5 0,10.5 C-5.794950008392334,10.5 -10.5,5.794950008392334 -10.5,0 C-10.5,-5.794950008392334 -5.794950008392334,-10.5 0,-10.5z">
                    </path>
                    <path stroke-linecap="butt" stroke-linejoin="miter" fill-opacity="0" stroke-miterlimit="4"
                        stroke="rgb(13,0,0)" stroke-opacity="1" stroke-width="1"
                        d=" M0,-10.5 C5.794950008392334,-10.5 10.5,-5.794950008392334 10.5,0 C10.5,5.794950008392334 5.794950008392334,10.5 0,10.5 C-5.794950008392334,10.5 -10.5,5.794950008392334 -10.5,0 C-10.5,-5.794950008392334 -5.794950008392334,-10.5 0,-10.5z">
                    </path>
                </g>
                <g opacity="1" transform="matrix(1,0,0,1,-43.612998962402344,38.80699920654297)">
                    <path fill="rgb(13,0,0)" fill-opacity="1"
                        d=" M0,-10.5 C5.794950008392334,-10.5 10.5,-5.794950008392334 10.5,0 C10.5,5.794950008392334 5.794950008392334,10.5 0,10.5 C-5.794950008392334,10.5 -10.5,5.794950008392334 -10.5,0 C-10.5,-5.794950008392334 -5.794950008392334,-10.5 0,-10.5z">
                    </path>
                    <path stroke-linecap="butt" stroke-linejoin="miter" fill-opacity="0" stroke-miterlimit="4"
                        stroke="rgb(13,0,0)" stroke-opacity="1" stroke-width="1"
                        d=" M0,-10.5 C5.794950008392334,-10.5 10.5,-5.794950008392334 10.5,0 C10.5,5.794950008392334 5.794950008392334,10.5 0,10.5 C-5.794950008392334,10.5 -10.5,5.794950008392334 -10.5,0 C-10.5,-5.794950008392334 -5.794950008392334,-10.5 0,-10.5z">
                    </path>
                </g>
                <g opacity="1" transform="matrix(1,0,0,1,-46.5,42.5)">
                    <path fill="rgb(64,60,52)" fill-opacity="1"
                        d=" M0,-10.5 C5.794950008392334,-10.5 10.5,-5.794950008392334 10.5,0 C10.5,5.794950008392334 5.794950008392334,10.5 0,10.5 C-5.794950008392334,10.5 -10.5,5.794950008392334 -10.5,0 C-10.5,-5.794950008392334 -5.794950008392334,-10.5 0,-10.5z">
                    </path>
                    <path stroke-linecap="butt" stroke-linejoin="miter" fill-opacity="0" stroke-miterlimit="4"
                        stroke="rgb(13,0,0)" stroke-opacity="1" stroke-width="1"
                        d=" M0,-10.5 C5.794950008392334,-10.5 10.5,-5.794950008392334 10.5,0 C10.5,5.794950008392334 5.794950008392334,10.5 0,10.5 C-5.794950008392334,10.5 -10.5,5.794950008392334 -10.5,0 C-10.5,-5.794950008392334 -5.794950008392334,-10.5 0,-10.5z">
                    </path>
                </g>
                <g opacity="1" transform="matrix(1,0,0,1,64.5,42.5)">
                    <path fill="rgb(64,60,52)" fill-opacity="1"
                        d=" M0,-10.5 C5.794950008392334,-10.5 10.5,-5.794950008392334 10.5,0 C10.5,5.794950008392334 5.794950008392334,10.5 0,10.5 C-5.794950008392334,10.5 -10.5,5.794950008392334 -10.5,0 C-10.5,-5.794950008392334 -5.794950008392334,-10.5 0,-10.5z">
                    </path>
                    <path stroke-linecap="butt" stroke-linejoin="miter" fill-opacity="0" stroke-miterlimit="4"
                        stroke="rgb(13,0,0)" stroke-opacity="1" stroke-width="1"
                        d=" M0,-10.5 C5.794950008392334,-10.5 10.5,-5.794950008392334 10.5,0 C10.5,5.794950008392334 5.794950008392334,10.5 0,10.5 C-5.794950008392334,10.5 -10.5,5.794950008392334 -10.5,0 C-10.5,-5.794950008392334 -5.794950008392334,-10.5 0,-10.5z">
                    </path>
                </g>
            </g>
            <g opacity="1" transform="matrix(1,0,0,1,0,0)">
                <g opacity="1"
                    transform="matrix(0.9305518269538879,-0.36616018414497375,0.36616018414497375,0.9305518269538879,112.25,-165.75)">
                    <path fill="rgb(182,170,147)" fill-opacity="1"
                        d=" M-67.73799896240234,-98.70500183105469 C-67.14900207519531,-97.71299743652344 -66.0739974975586,-98.97799682617188 -66.0739974975586,-98.97799682617188 C-66.0739974975586,-98.97799682617188 -61.178001403808594,-67.37799835205078 -61.12099838256836,-66.5260009765625 C-61.36899948120117,-65.23400115966797 -62.7859992980957,-65.73799896240234 -62.7859992980957,-66.25199890136719 C-62.7859992980957,-66.76599884033203 -67.68800354003906,-97.73200225830078 -67.73799896240234,-98.70500183105469z">
                    </path>
                    <path stroke-linecap="butt" stroke-linejoin="miter" fill-opacity="0" stroke-miterlimit="4"
                        stroke="rgb(64,60,52)" stroke-opacity="1" stroke-width="0"
                        d=" M-67.73799896240234,-98.70500183105469 C-67.14900207519531,-97.71299743652344 -66.0739974975586,-98.97799682617188 -66.0739974975586,-98.97799682617188 C-66.0739974975586,-98.97799682617188 -61.178001403808594,-67.37799835205078 -61.12099838256836,-66.5260009765625 C-61.36899948120117,-65.23400115966797 -62.7859992980957,-65.73799896240234 -62.7859992980957,-66.25199890136719 C-62.7859992980957,-66.76599884033203 -67.68800354003906,-97.73200225830078 -67.73799896240234,-98.70500183105469z">
                    </path>
                </g>
                <g opacity="1"
                    transform="matrix(0.9305518269538879,-0.36616018414497375,0.36616018414497375,0.9305518269538879,112.25,-165.75)">
                    <path fill="rgb(64,60,52)" fill-opacity="1"
                        d=" M-63.25299835205078,-67.31500244140625 C-62.275001525878906,-66.12999725341797 -60.8120002746582,-67.44999694824219 -60.8120002746582,-67.44999694824219 C-60.8120002746582,-67.44999694824219 -54.43199920654297,-28.113000869750977 -54.25699996948242,-27.142000198364258 C-54.48899841308594,-25.704999923706055 -56.64400100708008,-26.426000595092773 -56.696998596191406,-27.007999420166016 C-56.75,-27.59000015258789 -63.07699966430664,-66.20700073242188 -63.25299835205078,-67.31500244140625z">
                    </path>
                    <path stroke-linecap="butt" stroke-linejoin="miter" fill-opacity="0" stroke-miterlimit="4"
                        stroke="rgb(64,60,52)" stroke-opacity="1" stroke-width="0"
                        d=" M-63.25299835205078,-67.31500244140625 C-62.275001525878906,-66.12999725341797 -60.8120002746582,-67.44999694824219 -60.8120002746582,-67.44999694824219 C-60.8120002746582,-67.44999694824219 -54.43199920654297,-28.113000869750977 -54.25699996948242,-27.142000198364258 C-54.48899841308594,-25.704999923706055 -56.64400100708008,-26.426000595092773 -56.696998596191406,-27.007999420166016 C-56.75,-27.59000015258789 -63.07699966430664,-66.20700073242188 -63.25299835205078,-67.31500244140625z">
                    </path>
                </g>
            </g>
            <g opacity="1"
                transform="matrix(0.8660253882408142,-0.5,0.8660200238227844,0.4999969005584717,63.5,-150.5)">
                <path fill="url(#__lottie_element_8780)" fill-opacity="1"
                    d=" M0,-39.5 C21.800050735473633,-39.5 39.5,-21.800050735473633 39.5,0 C39.5,21.800050735473633 21.800050735473633,39.5 0,39.5 C-21.800050735473633,39.5 -39.5,21.800050735473633 -39.5,0 C-39.5,-21.800050735473633 -21.800050735473633,-39.5 0,-39.5z">
                </path>
                <path stroke-linecap="butt" stroke-linejoin="miter" fill-opacity="0" stroke-miterlimit="4"
                    stroke="rgb(64,60,52)" stroke-opacity="1" stroke-width="1"
                    d=" M0,-39.5 C21.800050735473633,-39.5 39.5,-21.800050735473633 39.5,0 C39.5,21.800050735473633 21.800050735473633,39.5 0,39.5 C-21.800050735473633,39.5 -39.5,21.800050735473633 -39.5,0 C-39.5,-21.800050735473633 -21.800050735473633,-39.5 0,-39.5z">
                </path>
            </g>
            <g opacity="1" transform="matrix(0.3813000023365021,0,0,0.666670024394989,76.25,-152)">
                <path fill="rgb(64,60,52)" fill-opacity="1"
                    d=" M0,-6 C4.691150188446045,-6 8.5,-3.3113999366760254 8.5,0 C8.5,3.3113999366760254 4.691150188446045,6 0,6 C-4.691150188446045,6 -8.5,3.3113999366760254 -8.5,0 C-8.5,-3.3113999366760254 -4.691150188446045,-6 0,-6z">
                </path>
                <path stroke-linecap="butt" stroke-linejoin="miter" fill-opacity="0" stroke-miterlimit="4"
                    stroke="rgb(64,60,52)" stroke-opacity="1" stroke-width="0"
                    d=" M0,-6 C4.691150188446045,-6 8.5,-3.3113999366760254 8.5,0 C8.5,3.3113999366760254 4.691150188446045,6 0,6 C-4.691150188446045,6 -8.5,3.3113999366760254 -8.5,0 C-8.5,-3.3113999366760254 -4.691150188446045,-6 0,-6z">
                </path>
            </g>
            <g opacity="1" transform="matrix(1,0,0,1,0,0)">
                <g opacity="1"
                    transform="matrix(0.9305518269538879,-0.36616018414497375,0.36616018414497375,0.9305518269538879,112.25,-165.75)">
                    <path fill="rgb(182,170,147)" fill-opacity="1"
                        d=" M97.12100219726562,-1.0080000162124634 C95.20700073242188,-0.30300000309944153 97.45999908447266,1.809000015258789 97.45999908447266,1.809000015258789 C97.45999908447266,1.809000015258789 37.90299987792969,1.406999945640564 36.30500030517578,1.2730000019073486 C33.91600036621094,0.5170000195503235 35.005001068115234,-1.684000015258789 35.96500015258789,-1.5449999570846558 C36.92499923706055,-1.406000018119812 95.2969970703125,-1.187000036239624 97.12100219726562,-1.0080000162124634z">
                    </path>
                    <path stroke-linecap="butt" stroke-linejoin="miter" fill-opacity="0" stroke-miterlimit="4"
                        stroke="rgb(64,60,52)" stroke-opacity="1" stroke-width="0"
                        d=" M97.12100219726562,-1.0080000162124634 C95.20700073242188,-0.30300000309944153 97.45999908447266,1.809000015258789 97.45999908447266,1.809000015258789 C97.45999908447266,1.809000015258789 37.90299987792969,1.406999945640564 36.30500030517578,1.2730000019073486 C33.91600036621094,0.5170000195503235 35.005001068115234,-1.684000015258789 35.96500015258789,-1.5449999570846558 C36.92499923706055,-1.406000018119812 95.2969970703125,-1.187000036239624 97.12100219726562,-1.0080000162124634z">
                    </path>
                </g>
                <g opacity="1"
                    transform="matrix(0.9305518269538879,-0.36616018414497375,0.36616018414497375,0.9305518269538879,112.25,-165.75)">
                    <path fill="rgb(64,60,52)" fill-opacity="1"
                        d=" M38,-2.0309998989105225 C35.685001373291016,-0.7350000143051147 38,2.0309998989105225 38,2.0309998989105225 C38,2.0309998989105225 -36.167999267578125,2.003999948501587 -38,2.0309998989105225 C-40.6609992980957,1.2619999647140503 -39.09299850463867,-2.0989999771118164 -38,-2.0309998989105225 C-36.90700149536133,-1.9630000591278076 35.9119987487793,-2.0369999408721924 38,-2.0309998989105225z">
                    </path>
                    <path stroke-linecap="butt" stroke-linejoin="miter" fill-opacity="0" stroke-miterlimit="4"
                        stroke="rgb(64,60,52)" stroke-opacity="1" stroke-width="0"
                        d=" M38,-2.0309998989105225 C35.685001373291016,-0.7350000143051147 38,2.0309998989105225 38,2.0309998989105225 C38,2.0309998989105225 -36.167999267578125,2.003999948501587 -38,2.0309998989105225 C-40.6609992980957,1.2619999647140503 -39.09299850463867,-2.0989999771118164 -38,-2.0309998989105225 C-36.90700149536133,-1.9630000591278076 35.9119987487793,-2.0369999408721924 38,-2.0309998989105225z">
                    </path>
                </g>
            </g>
            <g opacity="1" transform="matrix(1,0,0,1,0,0)">
                <path fill="rgb(227,227,227)" fill-opacity="1"
                    d=" M-47.5,-117 C-47.5,-117 -47.75,-54.25 -47.5,-46.5 C-47.25,-38.75 -39.5,-27 -37,-26 C-34.5,-25 50.5,23.5 50.5,23.5 C50.5,23.5 -3,-15.5 -24,-30 C-45,-44.5 -47.5,-117 -47.5,-117z">
                </path>
                <path stroke-linecap="butt" stroke-linejoin="miter" fill-opacity="0" stroke-miterlimit="4"
                    stroke="rgb(64,60,52)" stroke-opacity="1" stroke-width="0"
                    d=" M-47.5,-117 C-47.5,-117 -47.75,-54.25 -47.5,-46.5 C-47.25,-38.75 -39.5,-27 -37,-26 C-34.5,-25 50.5,23.5 50.5,23.5 C50.5,23.5 -3,-15.5 -24,-30 C-45,-44.5 -47.5,-117 -47.5,-117z">
                </path>
            </g>
            <g opacity="1" transform="matrix(1,0,0,1,0,0)">
                <path fill="rgb(255,255,255)" fill-opacity="1"
                    d=" M-12.5,-110 C50.5,-74 65.875,18.5 65.875,18.5 C65.875,18.5 65.75,8.25 65.875,6.75 C65.9489974975586,5.3429999351501465 65.76899719238281,-15.35200023651123 65.38500213623047,-33.25299835205078 C65.12100219726562,-45.5629997253418 65.28700256347656,-55.893001556396484 63.25,-60.375 C61.87799835205078,-63.393001556396484 58.0369987487793,-68.51300048828125 51.62300109863281,-73.16999816894531 C34.65999984741211,-85.48699951171875 4.189000129699707,-100.56700134277344 -12.5,-110z">
                </path>
                <path stroke-linecap="butt" stroke-linejoin="miter" fill-opacity="0" stroke-miterlimit="4"
                    stroke="rgb(64,60,52)" stroke-opacity="1" stroke-width="0"
                    d=" M-12.5,-110 C50.5,-74 65.875,18.5 65.875,18.5 C65.875,18.5 65.75,8.25 65.875,6.75 C65.9489974975586,5.3429999351501465 65.76899719238281,-15.35200023651123 65.38500213623047,-33.25299835205078 C65.12100219726562,-45.5629997253418 65.28700256347656,-55.893001556396484 63.25,-60.375 C61.87799835205078,-63.393001556396484 58.0369987487793,-68.51300048828125 51.62300109863281,-73.16999816894531 C34.65999984741211,-85.48699951171875 4.189000129699707,-100.56700134277344 -12.5,-110z">
                </path>
            </g>
        </g>
        <g transform="matrix(1.959999918937683,0,0,1.959999918937683,390.3888244628906,781.486328125)" opacity="1"
            style="mix-blend-mode: multiply; display: block;">
            <g opacity="1"
                transform="matrix(0.8660253882408142,0.5,0,0.9999938011169434,-54.120384216308594,-211.62271118164062)">
                <g opacity="1" transform="matrix(1,0,0,1,0,0)">
                    <path fill="rgb(0,23,255)" fill-opacity="1"
                        d=" M-11.625,-28.75 C-11.625,-28.75 -13.562000274658203,-28.75 -13.562000274658203,-28.75 C-13.562000274658203,-28.75 -15.5,-28.75 -15.5,-28.75 C-15.5,-28.75 -15.5,-30.687999725341797 -15.5,-30.687999725341797 C-15.5,-30.687999725341797 -15.5,-32.625 -15.5,-32.625 C-15.5,-32.625 -13.562000274658203,-32.625 -13.562000274658203,-32.625 C-13.562000274658203,-32.625 -11.625,-32.625 -11.625,-32.625 C-11.625,-32.625 -11.625,-34.5620002746582 -11.625,-34.5620002746582 C-11.625,-34.5620002746582 -11.625,-36.5 -11.625,-36.5 C-11.625,-36.5 -9.687000274658203,-36.5 -9.687000274658203,-36.5 C-9.687000274658203,-36.5 -7.75,-36.5 -7.75,-36.5 C-7.75,-36.5 -7.75,-34.5620002746582 -7.75,-34.5620002746582 C-7.75,-34.5620002746582 -7.75,-32.625 -7.75,-32.625 C-7.75,-32.625 -7.75,-30.687999725341797 -7.75,-30.687999725341797 C-7.75,-30.687999725341797 -7.75,-28.75 -7.75,-28.75 C-7.75,-28.75 -9.687000274658203,-28.75 -9.687000274658203,-28.75 C-9.687000274658203,-28.75 -11.625,-28.75 -11.625,-28.75z M-3.875,-21 C-3.875,-21 -3.875,-22.937999725341797 -3.875,-22.937999725341797 C-3.875,-22.937999725341797 -3.875,-24.875 -3.875,-24.875 C-3.875,-24.875 -1.937000036239624,-24.875 -1.937000036239624,-24.875 C-1.937000036239624,-24.875 -1.937000036239624,-26.812000274658203 -1.937000036239624,-26.812000274658203 C-1.937000036239624,-26.812000274658203 -1.937000036239624,-28.75 -1.937000036239624,-28.75 C-1.937000036239624,-28.75 -3.875,-28.75 -3.875,-28.75 C-3.875,-28.75 -3.875,-30.687999725341797 -3.875,-30.687999725341797 C-3.875,-30.687999725341797 -3.875,-32.625 -3.875,-32.625 C-3.875,-32.625 -3.875,-34.5620002746582 -3.875,-34.5620002746582 C-3.875,-34.5620002746582 -3.875,-36.5 -3.875,-36.5 C-3.875,-36.5 -3.875,-38.4379997253418 -3.875,-38.4379997253418 C-3.875,-38.4379997253418 -3.875,-40.375 -3.875,-40.375 C-3.875,-40.375 -3.875,-42.3120002746582 -3.875,-42.3120002746582 C-3.875,-42.3120002746582 -3.875,-44.25 -3.875,-44.25 C-3.875,-44.25 -5.811999797821045,-44.25 -5.811999797821045,-44.25 C-5.811999797821045,-44.25 -7.75,-44.25 -7.75,-44.25 C-7.75,-44.25 -7.75,-42.3120002746582 -7.75,-42.3120002746582 C-7.75,-42.3120002746582 -7.75,-40.375 -7.75,-40.375 C-7.75,-40.375 -9.687000274658203,-40.375 -9.687000274658203,-40.375 C-9.687000274658203,-40.375 -11.625,-40.375 -11.625,-40.375 C-11.625,-40.375 -11.625,-38.4379997253418 -11.625,-38.4379997253418 C-11.625,-38.4379997253418 -11.625,-36.5 -11.625,-36.5 C-11.625,-36.5 -13.562000274658203,-36.5 -13.562000274658203,-36.5 C-13.562000274658203,-36.5 -15.5,-36.5 -15.5,-36.5 C-15.5,-36.5 -15.5,-34.5620002746582 -15.5,-34.5620002746582 C-15.5,-34.5620002746582 -15.5,-32.625 -15.5,-32.625 C-15.5,-32.625 -17.437000274658203,-32.625 -17.437000274658203,-32.625 C-17.437000274658203,-32.625 -19.375,-32.625 -19.375,-32.625 C-19.375,-32.625 -19.375,-30.687999725341797 -19.375,-30.687999725341797 C-19.375,-30.687999725341797 -19.375,-28.75 -19.375,-28.75 C-19.375,-28.75 -19.375,-26.812000274658203 -19.375,-26.812000274658203 C-19.375,-26.812000274658203 -19.375,-24.875 -19.375,-24.875 C-19.375,-24.875 -17.437000274658203,-24.875 -17.437000274658203,-24.875 C-17.437000274658203,-24.875 -15.5,-24.875 -15.5,-24.875 C-15.5,-24.875 -13.562000274658203,-24.875 -13.562000274658203,-24.875 C-13.562000274658203,-24.875 -11.625,-24.875 -11.625,-24.875 C-11.625,-24.875 -9.687000274658203,-24.875 -9.687000274658203,-24.875 C-9.687000274658203,-24.875 -7.75,-24.875 -7.75,-24.875 C-7.75,-24.875 -7.75,-22.937999725341797 -7.75,-22.937999725341797 C-7.75,-22.937999725341797 -7.75,-21 -7.75,-21 C-7.75,-21 -5.811999797821045,-21 -5.811999797821045,-21 C-5.811999797821045,-21 -3.875,-21 -3.875,-21z">
                    </path>
                </g>
                <g opacity="1" transform="matrix(1,0,0,1,0,0)">
                    <path fill="rgb(0,23,255)" fill-opacity="1"
                        d=" M-26.87700080871582,-42.3120002746582 C-26.87700080871582,-42.3120002746582 -26.87700080871582,-44.25 -26.87700080871582,-44.25 C-26.87700080871582,-44.25 -28.81399917602539,-44.25 -28.81399917602539,-44.25 C-28.81399917602539,-44.25 -30.75200080871582,-44.25 -30.75200080871582,-44.25 C-30.75200080871582,-44.25 -32.68899917602539,-44.25 -32.68899917602539,-44.25 C-32.68899917602539,-44.25 -34.62699890136719,-44.25 -34.62699890136719,-44.25 C-34.62699890136719,-44.25 -34.62699890136719,-42.3120002746582 -34.62699890136719,-42.3120002746582 C-34.62699890136719,-42.3120002746582 -34.62699890136719,-40.375 -34.62699890136719,-40.375 C-34.62699890136719,-40.375 -32.68899917602539,-40.375 -32.68899917602539,-40.375 C-32.68899917602539,-40.375 -30.75200080871582,-40.375 -30.75200080871582,-40.375 C-30.75200080871582,-40.375 -28.81399917602539,-40.375 -28.81399917602539,-40.375 C-28.81399917602539,-40.375 -26.87700080871582,-40.375 -26.87700080871582,-40.375 C-26.87700080871582,-40.375 -26.87700080871582,-42.3120002746582 -26.87700080871582,-42.3120002746582z M-24.93899917602539,-24.875 C-24.93899917602539,-24.875 -23.00200080871582,-24.875 -23.00200080871582,-24.875 C-23.00200080871582,-24.875 -23.00200080871582,-26.812000274658203 -23.00200080871582,-26.812000274658203 C-23.00200080871582,-26.812000274658203 -23.00200080871582,-28.75 -23.00200080871582,-28.75 C-23.00200080871582,-28.75 -23.00200080871582,-30.687999725341797 -23.00200080871582,-30.687999725341797 C-23.00200080871582,-30.687999725341797 -23.00200080871582,-32.625 -23.00200080871582,-32.625 C-23.00200080871582,-32.625 -23.00200080871582,-34.5620002746582 -23.00200080871582,-34.5620002746582 C-23.00200080871582,-34.5620002746582 -23.00200080871582,-36.5 -23.00200080871582,-36.5 C-23.00200080871582,-36.5 -23.00200080871582,-38.4379997253418 -23.00200080871582,-38.4379997253418 C-23.00200080871582,-38.4379997253418 -23.00200080871582,-40.375 -23.00200080871582,-40.375 C-23.00200080871582,-40.375 -24.93899917602539,-40.375 -24.93899917602539,-40.375 C-24.93899917602539,-40.375 -26.87700080871582,-40.375 -26.87700080871582,-40.375 C-26.87700080871582,-40.375 -26.87700080871582,-38.4379997253418 -26.87700080871582,-38.4379997253418 C-26.87700080871582,-38.4379997253418 -28.81399917602539,-38.4379997253418 -28.81399917602539,-38.4379997253418 C-28.81399917602539,-38.4379997253418 -28.81399917602539,-36.5 -28.81399917602539,-36.5 C-28.81399917602539,-36.5 -28.81399917602539,-34.5620002746582 -28.81399917602539,-34.5620002746582 C-28.81399917602539,-34.5620002746582 -30.75200080871582,-34.5620002746582 -30.75200080871582,-34.5620002746582 C-30.75200080871582,-34.5620002746582 -32.68899917602539,-34.5620002746582 -32.68899917602539,-34.5620002746582 C-32.68899917602539,-34.5620002746582 -32.68899917602539,-32.625 -32.68899917602539,-32.625 C-32.68899917602539,-32.625 -32.68899917602539,-30.687999725341797 -32.68899917602539,-30.687999725341797 C-32.68899917602539,-30.687999725341797 -34.62699890136719,-30.687999725341797 -34.62699890136719,-30.687999725341797 C-34.62699890136719,-30.687999725341797 -34.62699890136719,-32.625 -34.62699890136719,-32.625 C-34.62699890136719,-32.625 -34.62699890136719,-34.5620002746582 -34.62699890136719,-34.5620002746582 C-34.62699890136719,-34.5620002746582 -34.62699890136719,-36.5 -34.62699890136719,-36.5 C-34.62699890136719,-36.5 -34.62699890136719,-38.4379997253418 -34.62699890136719,-38.4379997253418 C-34.62699890136719,-38.4379997253418 -34.62699890136719,-40.375 -34.62699890136719,-40.375 C-34.62699890136719,-40.375 -36.56399917602539,-40.375 -36.56399917602539,-40.375 C-36.56399917602539,-40.375 -38.50199890136719,-40.375 -38.50199890136719,-40.375 C-38.50199890136719,-40.375 -38.50199890136719,-38.4379997253418 -38.50199890136719,-38.4379997253418 C-38.50199890136719,-38.4379997253418 -38.50199890136719,-36.5 -38.50199890136719,-36.5 C-38.50199890136719,-36.5 -38.50199890136719,-34.5620002746582 -38.50199890136719,-34.5620002746582 C-38.50199890136719,-34.5620002746582 -38.50199890136719,-32.625 -38.50199890136719,-32.625 C-38.50199890136719,-32.625 -38.50199890136719,-30.687999725341797 -38.50199890136719,-30.687999725341797 C-38.50199890136719,-30.687999725341797 -38.50199890136719,-28.75 -38.50199890136719,-28.75 C-38.50199890136719,-28.75 -38.50199890136719,-26.812000274658203 -38.50199890136719,-26.812000274658203 C-38.50199890136719,-26.812000274658203 -38.50199890136719,-24.875 -38.50199890136719,-24.875 C-38.50199890136719,-24.875 -36.56399917602539,-24.875 -36.56399917602539,-24.875 C-36.56399917602539,-24.875 -34.62699890136719,-24.875 -34.62699890136719,-24.875 C-34.62699890136719,-24.875 -34.62699890136719,-26.812000274658203 -34.62699890136719,-26.812000274658203 C-34.62699890136719,-26.812000274658203 -32.68899917602539,-26.812000274658203 -32.68899917602539,-26.812000274658203 C-32.68899917602539,-26.812000274658203 -32.68899917602539,-28.75 -32.68899917602539,-28.75 C-32.68899917602539,-28.75 -32.68899917602539,-30.687999725341797 -32.68899917602539,-30.687999725341797 C-32.68899917602539,-30.687999725341797 -30.75200080871582,-30.687999725341797 -30.75200080871582,-30.687999725341797 C-30.75200080871582,-30.687999725341797 -28.81399917602539,-30.687999725341797 -28.81399917602539,-30.687999725341797 C-28.81399917602539,-30.687999725341797 -28.81399917602539,-32.625 -28.81399917602539,-32.625 C-28.81399917602539,-32.625 -28.81399917602539,-34.5620002746582 -28.81399917602539,-34.5620002746582 C-28.81399917602539,-34.5620002746582 -26.87700080871582,-34.5620002746582 -26.87700080871582,-34.5620002746582 C-26.87700080871582,-34.5620002746582 -26.87700080871582,-32.625 -26.87700080871582,-32.625 C-26.87700080871582,-32.625 -26.87700080871582,-30.687999725341797 -26.87700080871582,-30.687999725341797 C-26.87700080871582,-30.687999725341797 -26.87700080871582,-28.75 -26.87700080871582,-28.75 C-26.87700080871582,-28.75 -26.87700080871582,-26.812000274658203 -26.87700080871582,-26.812000274658203 C-26.87700080871582,-26.812000274658203 -26.87700080871582,-24.875 -26.87700080871582,-24.875 C-26.87700080871582,-24.875 -24.93899917602539,-24.875 -24.93899917602539,-24.875z M-26.87700080871582,-21 C-26.87700080871582,-21 -26.87700080871582,-22.937999725341797 -26.87700080871582,-22.937999725341797 C-26.87700080871582,-22.937999725341797 -26.87700080871582,-24.875 -26.87700080871582,-24.875 C-26.87700080871582,-24.875 -28.81399917602539,-24.875 -28.81399917602539,-24.875 C-28.81399917602539,-24.875 -30.75200080871582,-24.875 -30.75200080871582,-24.875 C-30.75200080871582,-24.875 -32.68899917602539,-24.875 -32.68899917602539,-24.875 C-32.68899917602539,-24.875 -34.62699890136719,-24.875 -34.62699890136719,-24.875 C-34.62699890136719,-24.875 -34.62699890136719,-22.937999725341797 -34.62699890136719,-22.937999725341797 C-34.62699890136719,-22.937999725341797 -34.62699890136719,-21 -34.62699890136719,-21 C-34.62699890136719,-21 -32.68899917602539,-21 -32.68899917602539,-21 C-32.68899917602539,-21 -30.75200080871582,-21 -30.75200080871582,-21 C-30.75200080871582,-21 -28.81399917602539,-21 -28.81399917602539,-21 C-28.81399917602539,-21 -26.87700080871582,-21 -26.87700080871582,-21z">
                    </path>
                </g>
                <g opacity="1" transform="matrix(1,0,0,1,0,0)">
                    <path fill="rgb(0,23,255)" fill-opacity="1"
                        d=" M-51.821998596191406,-28.75 C-51.821998596191406,-28.75 -53.7599983215332,-28.75 -53.7599983215332,-28.75 C-53.7599983215332,-28.75 -55.696998596191406,-28.75 -55.696998596191406,-28.75 C-55.696998596191406,-28.75 -55.696998596191406,-30.687999725341797 -55.696998596191406,-30.687999725341797 C-55.696998596191406,-30.687999725341797 -55.696998596191406,-32.625 -55.696998596191406,-32.625 C-55.696998596191406,-32.625 -53.7599983215332,-32.625 -53.7599983215332,-32.625 C-53.7599983215332,-32.625 -51.821998596191406,-32.625 -51.821998596191406,-32.625 C-51.821998596191406,-32.625 -51.821998596191406,-34.5620002746582 -51.821998596191406,-34.5620002746582 C-51.821998596191406,-34.5620002746582 -51.821998596191406,-36.5 -51.821998596191406,-36.5 C-51.821998596191406,-36.5 -49.8849983215332,-36.5 -49.8849983215332,-36.5 C-49.8849983215332,-36.5 -47.946998596191406,-36.5 -47.946998596191406,-36.5 C-47.946998596191406,-36.5 -47.946998596191406,-34.5620002746582 -47.946998596191406,-34.5620002746582 C-47.946998596191406,-34.5620002746582 -47.946998596191406,-32.625 -47.946998596191406,-32.625 C-47.946998596191406,-32.625 -47.946998596191406,-30.687999725341797 -47.946998596191406,-30.687999725341797 C-47.946998596191406,-30.687999725341797 -47.946998596191406,-28.75 -47.946998596191406,-28.75 C-47.946998596191406,-28.75 -49.8849983215332,-28.75 -49.8849983215332,-28.75 C-49.8849983215332,-28.75 -51.821998596191406,-28.75 -51.821998596191406,-28.75z M-44.071998596191406,-21 C-44.071998596191406,-21 -44.071998596191406,-22.937999725341797 -44.071998596191406,-22.937999725341797 C-44.071998596191406,-22.937999725341797 -44.071998596191406,-24.875 -44.071998596191406,-24.875 C-44.071998596191406,-24.875 -42.1349983215332,-24.875 -42.1349983215332,-24.875 C-42.1349983215332,-24.875 -42.1349983215332,-26.812000274658203 -42.1349983215332,-26.812000274658203 C-42.1349983215332,-26.812000274658203 -42.1349983215332,-28.75 -42.1349983215332,-28.75 C-42.1349983215332,-28.75 -44.071998596191406,-28.75 -44.071998596191406,-28.75 C-44.071998596191406,-28.75 -44.071998596191406,-30.687999725341797 -44.071998596191406,-30.687999725341797 C-44.071998596191406,-30.687999725341797 -44.071998596191406,-32.625 -44.071998596191406,-32.625 C-44.071998596191406,-32.625 -44.071998596191406,-34.5620002746582 -44.071998596191406,-34.5620002746582 C-44.071998596191406,-34.5620002746582 -44.071998596191406,-36.5 -44.071998596191406,-36.5 C-44.071998596191406,-36.5 -44.071998596191406,-38.4379997253418 -44.071998596191406,-38.4379997253418 C-44.071998596191406,-38.4379997253418 -44.071998596191406,-40.375 -44.071998596191406,-40.375 C-44.071998596191406,-40.375 -44.071998596191406,-42.3120002746582 -44.071998596191406,-42.3120002746582 C-44.071998596191406,-42.3120002746582 -44.071998596191406,-44.25 -44.071998596191406,-44.25 C-44.071998596191406,-44.25 -46.0099983215332,-44.25 -46.0099983215332,-44.25 C-46.0099983215332,-44.25 -47.946998596191406,-44.25 -47.946998596191406,-44.25 C-47.946998596191406,-44.25 -47.946998596191406,-42.3120002746582 -47.946998596191406,-42.3120002746582 C-47.946998596191406,-42.3120002746582 -47.946998596191406,-40.375 -47.946998596191406,-40.375 C-47.946998596191406,-40.375 -49.8849983215332,-40.375 -49.8849983215332,-40.375 C-49.8849983215332,-40.375 -51.821998596191406,-40.375 -51.821998596191406,-40.375 C-51.821998596191406,-40.375 -51.821998596191406,-38.4379997253418 -51.821998596191406,-38.4379997253418 C-51.821998596191406,-38.4379997253418 -51.821998596191406,-36.5 -51.821998596191406,-36.5 C-51.821998596191406,-36.5 -53.7599983215332,-36.5 -53.7599983215332,-36.5 C-53.7599983215332,-36.5 -55.696998596191406,-36.5 -55.696998596191406,-36.5 C-55.696998596191406,-36.5 -55.696998596191406,-34.5620002746582 -55.696998596191406,-34.5620002746582 C-55.696998596191406,-34.5620002746582 -55.696998596191406,-32.625 -55.696998596191406,-32.625 C-55.696998596191406,-32.625 -57.6349983215332,-32.625 -57.6349983215332,-32.625 C-57.6349983215332,-32.625 -59.571998596191406,-32.625 -59.571998596191406,-32.625 C-59.571998596191406,-32.625 -59.571998596191406,-30.687999725341797 -59.571998596191406,-30.687999725341797 C-59.571998596191406,-30.687999725341797 -59.571998596191406,-28.75 -59.571998596191406,-28.75 C-59.571998596191406,-28.75 -59.571998596191406,-26.812000274658203 -59.571998596191406,-26.812000274658203 C-59.571998596191406,-26.812000274658203 -59.571998596191406,-24.875 -59.571998596191406,-24.875 C-59.571998596191406,-24.875 -57.6349983215332,-24.875 -57.6349983215332,-24.875 C-57.6349983215332,-24.875 -55.696998596191406,-24.875 -55.696998596191406,-24.875 C-55.696998596191406,-24.875 -53.7599983215332,-24.875 -53.7599983215332,-24.875 C-53.7599983215332,-24.875 -51.821998596191406,-24.875 -51.821998596191406,-24.875 C-51.821998596191406,-24.875 -49.8849983215332,-24.875 -49.8849983215332,-24.875 C-49.8849983215332,-24.875 -47.946998596191406,-24.875 -47.946998596191406,-24.875 C-47.946998596191406,-24.875 -47.946998596191406,-22.937999725341797 -47.946998596191406,-22.937999725341797 C-47.946998596191406,-22.937999725341797 -47.946998596191406,-21 -47.946998596191406,-21 C-47.946998596191406,-21 -46.0099983215332,-21 -46.0099983215332,-21 C-46.0099983215332,-21 -44.071998596191406,-21 -44.071998596191406,-21z">
                    </path>
                </g>
            </g>
        </g>
        <g transform="matrix(1.959999918937683,0,0,1.959999918937683,393.3431701660156,780.2105102539062)" opacity="1"
            style="mix-blend-mode: multiply; display: block;">
            <g opacity="1"
                transform="matrix(0.8660253882408142,0.5,0,0.9999938011169434,-54.120384216308594,-211.62271118164062)">
                <g opacity="1" transform="matrix(1,0,0,1,0,0)">
                    <path fill="rgb(255,0,0)" fill-opacity="1"
                        d=" M-11.625,-28.75 C-11.625,-28.75 -13.562000274658203,-28.75 -13.562000274658203,-28.75 C-13.562000274658203,-28.75 -15.5,-28.75 -15.5,-28.75 C-15.5,-28.75 -15.5,-30.687999725341797 -15.5,-30.687999725341797 C-15.5,-30.687999725341797 -15.5,-32.625 -15.5,-32.625 C-15.5,-32.625 -13.562000274658203,-32.625 -13.562000274658203,-32.625 C-13.562000274658203,-32.625 -11.625,-32.625 -11.625,-32.625 C-11.625,-32.625 -11.625,-34.5620002746582 -11.625,-34.5620002746582 C-11.625,-34.5620002746582 -11.625,-36.5 -11.625,-36.5 C-11.625,-36.5 -9.687000274658203,-36.5 -9.687000274658203,-36.5 C-9.687000274658203,-36.5 -7.75,-36.5 -7.75,-36.5 C-7.75,-36.5 -7.75,-34.5620002746582 -7.75,-34.5620002746582 C-7.75,-34.5620002746582 -7.75,-32.625 -7.75,-32.625 C-7.75,-32.625 -7.75,-30.687999725341797 -7.75,-30.687999725341797 C-7.75,-30.687999725341797 -7.75,-28.75 -7.75,-28.75 C-7.75,-28.75 -9.687000274658203,-28.75 -9.687000274658203,-28.75 C-9.687000274658203,-28.75 -11.625,-28.75 -11.625,-28.75z M-3.875,-21 C-3.875,-21 -3.875,-22.937999725341797 -3.875,-22.937999725341797 C-3.875,-22.937999725341797 -3.875,-24.875 -3.875,-24.875 C-3.875,-24.875 -1.937000036239624,-24.875 -1.937000036239624,-24.875 C-1.937000036239624,-24.875 -1.937000036239624,-26.812000274658203 -1.937000036239624,-26.812000274658203 C-1.937000036239624,-26.812000274658203 -1.937000036239624,-28.75 -1.937000036239624,-28.75 C-1.937000036239624,-28.75 -3.875,-28.75 -3.875,-28.75 C-3.875,-28.75 -3.875,-30.687999725341797 -3.875,-30.687999725341797 C-3.875,-30.687999725341797 -3.875,-32.625 -3.875,-32.625 C-3.875,-32.625 -3.875,-34.5620002746582 -3.875,-34.5620002746582 C-3.875,-34.5620002746582 -3.875,-36.5 -3.875,-36.5 C-3.875,-36.5 -3.875,-38.4379997253418 -3.875,-38.4379997253418 C-3.875,-38.4379997253418 -3.875,-40.375 -3.875,-40.375 C-3.875,-40.375 -3.875,-42.3120002746582 -3.875,-42.3120002746582 C-3.875,-42.3120002746582 -3.875,-44.25 -3.875,-44.25 C-3.875,-44.25 -5.811999797821045,-44.25 -5.811999797821045,-44.25 C-5.811999797821045,-44.25 -7.75,-44.25 -7.75,-44.25 C-7.75,-44.25 -7.75,-42.3120002746582 -7.75,-42.3120002746582 C-7.75,-42.3120002746582 -7.75,-40.375 -7.75,-40.375 C-7.75,-40.375 -9.687000274658203,-40.375 -9.687000274658203,-40.375 C-9.687000274658203,-40.375 -11.625,-40.375 -11.625,-40.375 C-11.625,-40.375 -11.625,-38.4379997253418 -11.625,-38.4379997253418 C-11.625,-38.4379997253418 -11.625,-36.5 -11.625,-36.5 C-11.625,-36.5 -13.562000274658203,-36.5 -13.562000274658203,-36.5 C-13.562000274658203,-36.5 -15.5,-36.5 -15.5,-36.5 C-15.5,-36.5 -15.5,-34.5620002746582 -15.5,-34.5620002746582 C-15.5,-34.5620002746582 -15.5,-32.625 -15.5,-32.625 C-15.5,-32.625 -17.437000274658203,-32.625 -17.437000274658203,-32.625 C-17.437000274658203,-32.625 -19.375,-32.625 -19.375,-32.625 C-19.375,-32.625 -19.375,-30.687999725341797 -19.375,-30.687999725341797 C-19.375,-30.687999725341797 -19.375,-28.75 -19.375,-28.75 C-19.375,-28.75 -19.375,-26.812000274658203 -19.375,-26.812000274658203 C-19.375,-26.812000274658203 -19.375,-24.875 -19.375,-24.875 C-19.375,-24.875 -17.437000274658203,-24.875 -17.437000274658203,-24.875 C-17.437000274658203,-24.875 -15.5,-24.875 -15.5,-24.875 C-15.5,-24.875 -13.562000274658203,-24.875 -13.562000274658203,-24.875 C-13.562000274658203,-24.875 -11.625,-24.875 -11.625,-24.875 C-11.625,-24.875 -9.687000274658203,-24.875 -9.687000274658203,-24.875 C-9.687000274658203,-24.875 -7.75,-24.875 -7.75,-24.875 C-7.75,-24.875 -7.75,-22.937999725341797 -7.75,-22.937999725341797 C-7.75,-22.937999725341797 -7.75,-21 -7.75,-21 C-7.75,-21 -5.811999797821045,-21 -5.811999797821045,-21 C-5.811999797821045,-21 -3.875,-21 -3.875,-21z">
                    </path>
                </g>
                <g opacity="1" transform="matrix(1,0,0,1,0,0)">
                    <path fill="rgb(255,0,0)" fill-opacity="1"
                        d=" M-26.87700080871582,-42.3120002746582 C-26.87700080871582,-42.3120002746582 -26.87700080871582,-44.25 -26.87700080871582,-44.25 C-26.87700080871582,-44.25 -28.81399917602539,-44.25 -28.81399917602539,-44.25 C-28.81399917602539,-44.25 -30.75200080871582,-44.25 -30.75200080871582,-44.25 C-30.75200080871582,-44.25 -32.68899917602539,-44.25 -32.68899917602539,-44.25 C-32.68899917602539,-44.25 -34.62699890136719,-44.25 -34.62699890136719,-44.25 C-34.62699890136719,-44.25 -34.62699890136719,-42.3120002746582 -34.62699890136719,-42.3120002746582 C-34.62699890136719,-42.3120002746582 -34.62699890136719,-40.375 -34.62699890136719,-40.375 C-34.62699890136719,-40.375 -32.68899917602539,-40.375 -32.68899917602539,-40.375 C-32.68899917602539,-40.375 -30.75200080871582,-40.375 -30.75200080871582,-40.375 C-30.75200080871582,-40.375 -28.81399917602539,-40.375 -28.81399917602539,-40.375 C-28.81399917602539,-40.375 -26.87700080871582,-40.375 -26.87700080871582,-40.375 C-26.87700080871582,-40.375 -26.87700080871582,-42.3120002746582 -26.87700080871582,-42.3120002746582z M-24.93899917602539,-24.875 C-24.93899917602539,-24.875 -23.00200080871582,-24.875 -23.00200080871582,-24.875 C-23.00200080871582,-24.875 -23.00200080871582,-26.812000274658203 -23.00200080871582,-26.812000274658203 C-23.00200080871582,-26.812000274658203 -23.00200080871582,-28.75 -23.00200080871582,-28.75 C-23.00200080871582,-28.75 -23.00200080871582,-30.687999725341797 -23.00200080871582,-30.687999725341797 C-23.00200080871582,-30.687999725341797 -23.00200080871582,-32.625 -23.00200080871582,-32.625 C-23.00200080871582,-32.625 -23.00200080871582,-34.5620002746582 -23.00200080871582,-34.5620002746582 C-23.00200080871582,-34.5620002746582 -23.00200080871582,-36.5 -23.00200080871582,-36.5 C-23.00200080871582,-36.5 -23.00200080871582,-38.4379997253418 -23.00200080871582,-38.4379997253418 C-23.00200080871582,-38.4379997253418 -23.00200080871582,-40.375 -23.00200080871582,-40.375 C-23.00200080871582,-40.375 -24.93899917602539,-40.375 -24.93899917602539,-40.375 C-24.93899917602539,-40.375 -26.87700080871582,-40.375 -26.87700080871582,-40.375 C-26.87700080871582,-40.375 -26.87700080871582,-38.4379997253418 -26.87700080871582,-38.4379997253418 C-26.87700080871582,-38.4379997253418 -28.81399917602539,-38.4379997253418 -28.81399917602539,-38.4379997253418 C-28.81399917602539,-38.4379997253418 -28.81399917602539,-36.5 -28.81399917602539,-36.5 C-28.81399917602539,-36.5 -28.81399917602539,-34.5620002746582 -28.81399917602539,-34.5620002746582 C-28.81399917602539,-34.5620002746582 -30.75200080871582,-34.5620002746582 -30.75200080871582,-34.5620002746582 C-30.75200080871582,-34.5620002746582 -32.68899917602539,-34.5620002746582 -32.68899917602539,-34.5620002746582 C-32.68899917602539,-34.5620002746582 -32.68899917602539,-32.625 -32.68899917602539,-32.625 C-32.68899917602539,-32.625 -32.68899917602539,-30.687999725341797 -32.68899917602539,-30.687999725341797 C-32.68899917602539,-30.687999725341797 -34.62699890136719,-30.687999725341797 -34.62699890136719,-30.687999725341797 C-34.62699890136719,-30.687999725341797 -34.62699890136719,-32.625 -34.62699890136719,-32.625 C-34.62699890136719,-32.625 -34.62699890136719,-34.5620002746582 -34.62699890136719,-34.5620002746582 C-34.62699890136719,-34.5620002746582 -34.62699890136719,-36.5 -34.62699890136719,-36.5 C-34.62699890136719,-36.5 -34.62699890136719,-38.4379997253418 -34.62699890136719,-38.4379997253418 C-34.62699890136719,-38.4379997253418 -34.62699890136719,-40.375 -34.62699890136719,-40.375 C-34.62699890136719,-40.375 -36.56399917602539,-40.375 -36.56399917602539,-40.375 C-36.56399917602539,-40.375 -38.50199890136719,-40.375 -38.50199890136719,-40.375 C-38.50199890136719,-40.375 -38.50199890136719,-38.4379997253418 -38.50199890136719,-38.4379997253418 C-38.50199890136719,-38.4379997253418 -38.50199890136719,-36.5 -38.50199890136719,-36.5 C-38.50199890136719,-36.5 -38.50199890136719,-34.5620002746582 -38.50199890136719,-34.5620002746582 C-38.50199890136719,-34.5620002746582 -38.50199890136719,-32.625 -38.50199890136719,-32.625 C-38.50199890136719,-32.625 -38.50199890136719,-30.687999725341797 -38.50199890136719,-30.687999725341797 C-38.50199890136719,-30.687999725341797 -38.50199890136719,-28.75 -38.50199890136719,-28.75 C-38.50199890136719,-28.75 -38.50199890136719,-26.812000274658203 -38.50199890136719,-26.812000274658203 C-38.50199890136719,-26.812000274658203 -38.50199890136719,-24.875 -38.50199890136719,-24.875 C-38.50199890136719,-24.875 -36.56399917602539,-24.875 -36.56399917602539,-24.875 C-36.56399917602539,-24.875 -34.62699890136719,-24.875 -34.62699890136719,-24.875 C-34.62699890136719,-24.875 -34.62699890136719,-26.812000274658203 -34.62699890136719,-26.812000274658203 C-34.62699890136719,-26.812000274658203 -32.68899917602539,-26.812000274658203 -32.68899917602539,-26.812000274658203 C-32.68899917602539,-26.812000274658203 -32.68899917602539,-28.75 -32.68899917602539,-28.75 C-32.68899917602539,-28.75 -32.68899917602539,-30.687999725341797 -32.68899917602539,-30.687999725341797 C-32.68899917602539,-30.687999725341797 -30.75200080871582,-30.687999725341797 -30.75200080871582,-30.687999725341797 C-30.75200080871582,-30.687999725341797 -28.81399917602539,-30.687999725341797 -28.81399917602539,-30.687999725341797 C-28.81399917602539,-30.687999725341797 -28.81399917602539,-32.625 -28.81399917602539,-32.625 C-28.81399917602539,-32.625 -28.81399917602539,-34.5620002746582 -28.81399917602539,-34.5620002746582 C-28.81399917602539,-34.5620002746582 -26.87700080871582,-34.5620002746582 -26.87700080871582,-34.5620002746582 C-26.87700080871582,-34.5620002746582 -26.87700080871582,-32.625 -26.87700080871582,-32.625 C-26.87700080871582,-32.625 -26.87700080871582,-30.687999725341797 -26.87700080871582,-30.687999725341797 C-26.87700080871582,-30.687999725341797 -26.87700080871582,-28.75 -26.87700080871582,-28.75 C-26.87700080871582,-28.75 -26.87700080871582,-26.812000274658203 -26.87700080871582,-26.812000274658203 C-26.87700080871582,-26.812000274658203 -26.87700080871582,-24.875 -26.87700080871582,-24.875 C-26.87700080871582,-24.875 -24.93899917602539,-24.875 -24.93899917602539,-24.875z M-26.87700080871582,-21 C-26.87700080871582,-21 -26.87700080871582,-22.937999725341797 -26.87700080871582,-22.937999725341797 C-26.87700080871582,-22.937999725341797 -26.87700080871582,-24.875 -26.87700080871582,-24.875 C-26.87700080871582,-24.875 -28.81399917602539,-24.875 -28.81399917602539,-24.875 C-28.81399917602539,-24.875 -30.75200080871582,-24.875 -30.75200080871582,-24.875 C-30.75200080871582,-24.875 -32.68899917602539,-24.875 -32.68899917602539,-24.875 C-32.68899917602539,-24.875 -34.62699890136719,-24.875 -34.62699890136719,-24.875 C-34.62699890136719,-24.875 -34.62699890136719,-22.937999725341797 -34.62699890136719,-22.937999725341797 C-34.62699890136719,-22.937999725341797 -34.62699890136719,-21 -34.62699890136719,-21 C-34.62699890136719,-21 -32.68899917602539,-21 -32.68899917602539,-21 C-32.68899917602539,-21 -30.75200080871582,-21 -30.75200080871582,-21 C-30.75200080871582,-21 -28.81399917602539,-21 -28.81399917602539,-21 C-28.81399917602539,-21 -26.87700080871582,-21 -26.87700080871582,-21z">
                    </path>
                </g>
                <g opacity="1" transform="matrix(1,0,0,1,0,0)">
                    <path fill="rgb(255,0,0)" fill-opacity="1"
                        d=" M-51.821998596191406,-28.75 C-51.821998596191406,-28.75 -53.7599983215332,-28.75 -53.7599983215332,-28.75 C-53.7599983215332,-28.75 -55.696998596191406,-28.75 -55.696998596191406,-28.75 C-55.696998596191406,-28.75 -55.696998596191406,-30.687999725341797 -55.696998596191406,-30.687999725341797 C-55.696998596191406,-30.687999725341797 -55.696998596191406,-32.625 -55.696998596191406,-32.625 C-55.696998596191406,-32.625 -53.7599983215332,-32.625 -53.7599983215332,-32.625 C-53.7599983215332,-32.625 -51.821998596191406,-32.625 -51.821998596191406,-32.625 C-51.821998596191406,-32.625 -51.821998596191406,-34.5620002746582 -51.821998596191406,-34.5620002746582 C-51.821998596191406,-34.5620002746582 -51.821998596191406,-36.5 -51.821998596191406,-36.5 C-51.821998596191406,-36.5 -49.8849983215332,-36.5 -49.8849983215332,-36.5 C-49.8849983215332,-36.5 -47.946998596191406,-36.5 -47.946998596191406,-36.5 C-47.946998596191406,-36.5 -47.946998596191406,-34.5620002746582 -47.946998596191406,-34.5620002746582 C-47.946998596191406,-34.5620002746582 -47.946998596191406,-32.625 -47.946998596191406,-32.625 C-47.946998596191406,-32.625 -47.946998596191406,-30.687999725341797 -47.946998596191406,-30.687999725341797 C-47.946998596191406,-30.687999725341797 -47.946998596191406,-28.75 -47.946998596191406,-28.75 C-47.946998596191406,-28.75 -49.8849983215332,-28.75 -49.8849983215332,-28.75 C-49.8849983215332,-28.75 -51.821998596191406,-28.75 -51.821998596191406,-28.75z M-44.071998596191406,-21 C-44.071998596191406,-21 -44.071998596191406,-22.937999725341797 -44.071998596191406,-22.937999725341797 C-44.071998596191406,-22.937999725341797 -44.071998596191406,-24.875 -44.071998596191406,-24.875 C-44.071998596191406,-24.875 -42.1349983215332,-24.875 -42.1349983215332,-24.875 C-42.1349983215332,-24.875 -42.1349983215332,-26.812000274658203 -42.1349983215332,-26.812000274658203 C-42.1349983215332,-26.812000274658203 -42.1349983215332,-28.75 -42.1349983215332,-28.75 C-42.1349983215332,-28.75 -44.071998596191406,-28.75 -44.071998596191406,-28.75 C-44.071998596191406,-28.75 -44.071998596191406,-30.687999725341797 -44.071998596191406,-30.687999725341797 C-44.071998596191406,-30.687999725341797 -44.071998596191406,-32.625 -44.071998596191406,-32.625 C-44.071998596191406,-32.625 -44.071998596191406,-34.5620002746582 -44.071998596191406,-34.5620002746582 C-44.071998596191406,-34.5620002746582 -44.071998596191406,-36.5 -44.071998596191406,-36.5 C-44.071998596191406,-36.5 -44.071998596191406,-38.4379997253418 -44.071998596191406,-38.4379997253418 C-44.071998596191406,-38.4379997253418 -44.071998596191406,-40.375 -44.071998596191406,-40.375 C-44.071998596191406,-40.375 -44.071998596191406,-42.3120002746582 -44.071998596191406,-42.3120002746582 C-44.071998596191406,-42.3120002746582 -44.071998596191406,-44.25 -44.071998596191406,-44.25 C-44.071998596191406,-44.25 -46.0099983215332,-44.25 -46.0099983215332,-44.25 C-46.0099983215332,-44.25 -47.946998596191406,-44.25 -47.946998596191406,-44.25 C-47.946998596191406,-44.25 -47.946998596191406,-42.3120002746582 -47.946998596191406,-42.3120002746582 C-47.946998596191406,-42.3120002746582 -47.946998596191406,-40.375 -47.946998596191406,-40.375 C-47.946998596191406,-40.375 -49.8849983215332,-40.375 -49.8849983215332,-40.375 C-49.8849983215332,-40.375 -51.821998596191406,-40.375 -51.821998596191406,-40.375 C-51.821998596191406,-40.375 -51.821998596191406,-38.4379997253418 -51.821998596191406,-38.4379997253418 C-51.821998596191406,-38.4379997253418 -51.821998596191406,-36.5 -51.821998596191406,-36.5 C-51.821998596191406,-36.5 -53.7599983215332,-36.5 -53.7599983215332,-36.5 C-53.7599983215332,-36.5 -55.696998596191406,-36.5 -55.696998596191406,-36.5 C-55.696998596191406,-36.5 -55.696998596191406,-34.5620002746582 -55.696998596191406,-34.5620002746582 C-55.696998596191406,-34.5620002746582 -55.696998596191406,-32.625 -55.696998596191406,-32.625 C-55.696998596191406,-32.625 -57.6349983215332,-32.625 -57.6349983215332,-32.625 C-57.6349983215332,-32.625 -59.571998596191406,-32.625 -59.571998596191406,-32.625 C-59.571998596191406,-32.625 -59.571998596191406,-30.687999725341797 -59.571998596191406,-30.687999725341797 C-59.571998596191406,-30.687999725341797 -59.571998596191406,-28.75 -59.571998596191406,-28.75 C-59.571998596191406,-28.75 -59.571998596191406,-26.812000274658203 -59.571998596191406,-26.812000274658203 C-59.571998596191406,-26.812000274658203 -59.571998596191406,-24.875 -59.571998596191406,-24.875 C-59.571998596191406,-24.875 -57.6349983215332,-24.875 -57.6349983215332,-24.875 C-57.6349983215332,-24.875 -55.696998596191406,-24.875 -55.696998596191406,-24.875 C-55.696998596191406,-24.875 -53.7599983215332,-24.875 -53.7599983215332,-24.875 C-53.7599983215332,-24.875 -51.821998596191406,-24.875 -51.821998596191406,-24.875 C-51.821998596191406,-24.875 -49.8849983215332,-24.875 -49.8849983215332,-24.875 C-49.8849983215332,-24.875 -47.946998596191406,-24.875 -47.946998596191406,-24.875 C-47.946998596191406,-24.875 -47.946998596191406,-22.937999725341797 -47.946998596191406,-22.937999725341797 C-47.946998596191406,-22.937999725341797 -47.946998596191406,-21 -47.946998596191406,-21 C-47.946998596191406,-21 -46.0099983215332,-21 -46.0099983215332,-21 C-46.0099983215332,-21 -44.071998596191406,-21 -44.071998596191406,-21z">
                    </path>
                </g>
            </g>
        </g>
        <g transform="matrix(1.959999918937683,0,0,1.959999918937683,392.0176696777344,782.0078735351562)" opacity="1"
            style="mix-blend-mode: multiply; display: block;">
            <g opacity="1"
                transform="matrix(0.8660253882408142,0.5,0,0.9999938011169434,-54.120384216308594,-211.62271118164062)">
                <g opacity="1" transform="matrix(1,0,0,1,0,0)">
                    <path fill="rgb(53,255,0)" fill-opacity="1"
                        d=" M-11.625,-28.75 C-11.625,-28.75 -13.562000274658203,-28.75 -13.562000274658203,-28.75 C-13.562000274658203,-28.75 -15.5,-28.75 -15.5,-28.75 C-15.5,-28.75 -15.5,-30.687999725341797 -15.5,-30.687999725341797 C-15.5,-30.687999725341797 -15.5,-32.625 -15.5,-32.625 C-15.5,-32.625 -13.562000274658203,-32.625 -13.562000274658203,-32.625 C-13.562000274658203,-32.625 -11.625,-32.625 -11.625,-32.625 C-11.625,-32.625 -11.625,-34.5620002746582 -11.625,-34.5620002746582 C-11.625,-34.5620002746582 -11.625,-36.5 -11.625,-36.5 C-11.625,-36.5 -9.687000274658203,-36.5 -9.687000274658203,-36.5 C-9.687000274658203,-36.5 -7.75,-36.5 -7.75,-36.5 C-7.75,-36.5 -7.75,-34.5620002746582 -7.75,-34.5620002746582 C-7.75,-34.5620002746582 -7.75,-32.625 -7.75,-32.625 C-7.75,-32.625 -7.75,-30.687999725341797 -7.75,-30.687999725341797 C-7.75,-30.687999725341797 -7.75,-28.75 -7.75,-28.75 C-7.75,-28.75 -9.687000274658203,-28.75 -9.687000274658203,-28.75 C-9.687000274658203,-28.75 -11.625,-28.75 -11.625,-28.75z M-3.875,-21 C-3.875,-21 -3.875,-22.937999725341797 -3.875,-22.937999725341797 C-3.875,-22.937999725341797 -3.875,-24.875 -3.875,-24.875 C-3.875,-24.875 -1.937000036239624,-24.875 -1.937000036239624,-24.875 C-1.937000036239624,-24.875 -1.937000036239624,-26.812000274658203 -1.937000036239624,-26.812000274658203 C-1.937000036239624,-26.812000274658203 -1.937000036239624,-28.75 -1.937000036239624,-28.75 C-1.937000036239624,-28.75 -3.875,-28.75 -3.875,-28.75 C-3.875,-28.75 -3.875,-30.687999725341797 -3.875,-30.687999725341797 C-3.875,-30.687999725341797 -3.875,-32.625 -3.875,-32.625 C-3.875,-32.625 -3.875,-34.5620002746582 -3.875,-34.5620002746582 C-3.875,-34.5620002746582 -3.875,-36.5 -3.875,-36.5 C-3.875,-36.5 -3.875,-38.4379997253418 -3.875,-38.4379997253418 C-3.875,-38.4379997253418 -3.875,-40.375 -3.875,-40.375 C-3.875,-40.375 -3.875,-42.3120002746582 -3.875,-42.3120002746582 C-3.875,-42.3120002746582 -3.875,-44.25 -3.875,-44.25 C-3.875,-44.25 -5.811999797821045,-44.25 -5.811999797821045,-44.25 C-5.811999797821045,-44.25 -7.75,-44.25 -7.75,-44.25 C-7.75,-44.25 -7.75,-42.3120002746582 -7.75,-42.3120002746582 C-7.75,-42.3120002746582 -7.75,-40.375 -7.75,-40.375 C-7.75,-40.375 -9.687000274658203,-40.375 -9.687000274658203,-40.375 C-9.687000274658203,-40.375 -11.625,-40.375 -11.625,-40.375 C-11.625,-40.375 -11.625,-38.4379997253418 -11.625,-38.4379997253418 C-11.625,-38.4379997253418 -11.625,-36.5 -11.625,-36.5 C-11.625,-36.5 -13.562000274658203,-36.5 -13.562000274658203,-36.5 C-13.562000274658203,-36.5 -15.5,-36.5 -15.5,-36.5 C-15.5,-36.5 -15.5,-34.5620002746582 -15.5,-34.5620002746582 C-15.5,-34.5620002746582 -15.5,-32.625 -15.5,-32.625 C-15.5,-32.625 -17.437000274658203,-32.625 -17.437000274658203,-32.625 C-17.437000274658203,-32.625 -19.375,-32.625 -19.375,-32.625 C-19.375,-32.625 -19.375,-30.687999725341797 -19.375,-30.687999725341797 C-19.375,-30.687999725341797 -19.375,-28.75 -19.375,-28.75 C-19.375,-28.75 -19.375,-26.812000274658203 -19.375,-26.812000274658203 C-19.375,-26.812000274658203 -19.375,-24.875 -19.375,-24.875 C-19.375,-24.875 -17.437000274658203,-24.875 -17.437000274658203,-24.875 C-17.437000274658203,-24.875 -15.5,-24.875 -15.5,-24.875 C-15.5,-24.875 -13.562000274658203,-24.875 -13.562000274658203,-24.875 C-13.562000274658203,-24.875 -11.625,-24.875 -11.625,-24.875 C-11.625,-24.875 -9.687000274658203,-24.875 -9.687000274658203,-24.875 C-9.687000274658203,-24.875 -7.75,-24.875 -7.75,-24.875 C-7.75,-24.875 -7.75,-22.937999725341797 -7.75,-22.937999725341797 C-7.75,-22.937999725341797 -7.75,-21 -7.75,-21 C-7.75,-21 -5.811999797821045,-21 -5.811999797821045,-21 C-5.811999797821045,-21 -3.875,-21 -3.875,-21z">
                    </path>
                </g>
                <g opacity="1" transform="matrix(1,0,0,1,0,0)">
                    <path fill="rgb(53,255,0)" fill-opacity="1"
                        d=" M-26.87700080871582,-42.3120002746582 C-26.87700080871582,-42.3120002746582 -26.87700080871582,-44.25 -26.87700080871582,-44.25 C-26.87700080871582,-44.25 -28.81399917602539,-44.25 -28.81399917602539,-44.25 C-28.81399917602539,-44.25 -30.75200080871582,-44.25 -30.75200080871582,-44.25 C-30.75200080871582,-44.25 -32.68899917602539,-44.25 -32.68899917602539,-44.25 C-32.68899917602539,-44.25 -34.62699890136719,-44.25 -34.62699890136719,-44.25 C-34.62699890136719,-44.25 -34.62699890136719,-42.3120002746582 -34.62699890136719,-42.3120002746582 C-34.62699890136719,-42.3120002746582 -34.62699890136719,-40.375 -34.62699890136719,-40.375 C-34.62699890136719,-40.375 -32.68899917602539,-40.375 -32.68899917602539,-40.375 C-32.68899917602539,-40.375 -30.75200080871582,-40.375 -30.75200080871582,-40.375 C-30.75200080871582,-40.375 -28.81399917602539,-40.375 -28.81399917602539,-40.375 C-28.81399917602539,-40.375 -26.87700080871582,-40.375 -26.87700080871582,-40.375 C-26.87700080871582,-40.375 -26.87700080871582,-42.3120002746582 -26.87700080871582,-42.3120002746582z M-24.93899917602539,-24.875 C-24.93899917602539,-24.875 -23.00200080871582,-24.875 -23.00200080871582,-24.875 C-23.00200080871582,-24.875 -23.00200080871582,-26.812000274658203 -23.00200080871582,-26.812000274658203 C-23.00200080871582,-26.812000274658203 -23.00200080871582,-28.75 -23.00200080871582,-28.75 C-23.00200080871582,-28.75 -23.00200080871582,-30.687999725341797 -23.00200080871582,-30.687999725341797 C-23.00200080871582,-30.687999725341797 -23.00200080871582,-32.625 -23.00200080871582,-32.625 C-23.00200080871582,-32.625 -23.00200080871582,-34.5620002746582 -23.00200080871582,-34.5620002746582 C-23.00200080871582,-34.5620002746582 -23.00200080871582,-36.5 -23.00200080871582,-36.5 C-23.00200080871582,-36.5 -23.00200080871582,-38.4379997253418 -23.00200080871582,-38.4379997253418 C-23.00200080871582,-38.4379997253418 -23.00200080871582,-40.375 -23.00200080871582,-40.375 C-23.00200080871582,-40.375 -24.93899917602539,-40.375 -24.93899917602539,-40.375 C-24.93899917602539,-40.375 -26.87700080871582,-40.375 -26.87700080871582,-40.375 C-26.87700080871582,-40.375 -26.87700080871582,-38.4379997253418 -26.87700080871582,-38.4379997253418 C-26.87700080871582,-38.4379997253418 -28.81399917602539,-38.4379997253418 -28.81399917602539,-38.4379997253418 C-28.81399917602539,-38.4379997253418 -28.81399917602539,-36.5 -28.81399917602539,-36.5 C-28.81399917602539,-36.5 -28.81399917602539,-34.5620002746582 -28.81399917602539,-34.5620002746582 C-28.81399917602539,-34.5620002746582 -30.75200080871582,-34.5620002746582 -30.75200080871582,-34.5620002746582 C-30.75200080871582,-34.5620002746582 -32.68899917602539,-34.5620002746582 -32.68899917602539,-34.5620002746582 C-32.68899917602539,-34.5620002746582 -32.68899917602539,-32.625 -32.68899917602539,-32.625 C-32.68899917602539,-32.625 -32.68899917602539,-30.687999725341797 -32.68899917602539,-30.687999725341797 C-32.68899917602539,-30.687999725341797 -34.62699890136719,-30.687999725341797 -34.62699890136719,-30.687999725341797 C-34.62699890136719,-30.687999725341797 -34.62699890136719,-32.625 -34.62699890136719,-32.625 C-34.62699890136719,-32.625 -34.62699890136719,-34.5620002746582 -34.62699890136719,-34.5620002746582 C-34.62699890136719,-34.5620002746582 -34.62699890136719,-36.5 -34.62699890136719,-36.5 C-34.62699890136719,-36.5 -34.62699890136719,-38.4379997253418 -34.62699890136719,-38.4379997253418 C-34.62699890136719,-38.4379997253418 -34.62699890136719,-40.375 -34.62699890136719,-40.375 C-34.62699890136719,-40.375 -36.56399917602539,-40.375 -36.56399917602539,-40.375 C-36.56399917602539,-40.375 -38.50199890136719,-40.375 -38.50199890136719,-40.375 C-38.50199890136719,-40.375 -38.50199890136719,-38.4379997253418 -38.50199890136719,-38.4379997253418 C-38.50199890136719,-38.4379997253418 -38.50199890136719,-36.5 -38.50199890136719,-36.5 C-38.50199890136719,-36.5 -38.50199890136719,-34.5620002746582 -38.50199890136719,-34.5620002746582 C-38.50199890136719,-34.5620002746582 -38.50199890136719,-32.625 -38.50199890136719,-32.625 C-38.50199890136719,-32.625 -38.50199890136719,-30.687999725341797 -38.50199890136719,-30.687999725341797 C-38.50199890136719,-30.687999725341797 -38.50199890136719,-28.75 -38.50199890136719,-28.75 C-38.50199890136719,-28.75 -38.50199890136719,-26.812000274658203 -38.50199890136719,-26.812000274658203 C-38.50199890136719,-26.812000274658203 -38.50199890136719,-24.875 -38.50199890136719,-24.875 C-38.50199890136719,-24.875 -36.56399917602539,-24.875 -36.56399917602539,-24.875 C-36.56399917602539,-24.875 -34.62699890136719,-24.875 -34.62699890136719,-24.875 C-34.62699890136719,-24.875 -34.62699890136719,-26.812000274658203 -34.62699890136719,-26.812000274658203 C-34.62699890136719,-26.812000274658203 -32.68899917602539,-26.812000274658203 -32.68899917602539,-26.812000274658203 C-32.68899917602539,-26.812000274658203 -32.68899917602539,-28.75 -32.68899917602539,-28.75 C-32.68899917602539,-28.75 -32.68899917602539,-30.687999725341797 -32.68899917602539,-30.687999725341797 C-32.68899917602539,-30.687999725341797 -30.75200080871582,-30.687999725341797 -30.75200080871582,-30.687999725341797 C-30.75200080871582,-30.687999725341797 -28.81399917602539,-30.687999725341797 -28.81399917602539,-30.687999725341797 C-28.81399917602539,-30.687999725341797 -28.81399917602539,-32.625 -28.81399917602539,-32.625 C-28.81399917602539,-32.625 -28.81399917602539,-34.5620002746582 -28.81399917602539,-34.5620002746582 C-28.81399917602539,-34.5620002746582 -26.87700080871582,-34.5620002746582 -26.87700080871582,-34.5620002746582 C-26.87700080871582,-34.5620002746582 -26.87700080871582,-32.625 -26.87700080871582,-32.625 C-26.87700080871582,-32.625 -26.87700080871582,-30.687999725341797 -26.87700080871582,-30.687999725341797 C-26.87700080871582,-30.687999725341797 -26.87700080871582,-28.75 -26.87700080871582,-28.75 C-26.87700080871582,-28.75 -26.87700080871582,-26.812000274658203 -26.87700080871582,-26.812000274658203 C-26.87700080871582,-26.812000274658203 -26.87700080871582,-24.875 -26.87700080871582,-24.875 C-26.87700080871582,-24.875 -24.93899917602539,-24.875 -24.93899917602539,-24.875z M-26.87700080871582,-21 C-26.87700080871582,-21 -26.87700080871582,-22.937999725341797 -26.87700080871582,-22.937999725341797 C-26.87700080871582,-22.937999725341797 -26.87700080871582,-24.875 -26.87700080871582,-24.875 C-26.87700080871582,-24.875 -28.81399917602539,-24.875 -28.81399917602539,-24.875 C-28.81399917602539,-24.875 -30.75200080871582,-24.875 -30.75200080871582,-24.875 C-30.75200080871582,-24.875 -32.68899917602539,-24.875 -32.68899917602539,-24.875 C-32.68899917602539,-24.875 -34.62699890136719,-24.875 -34.62699890136719,-24.875 C-34.62699890136719,-24.875 -34.62699890136719,-22.937999725341797 -34.62699890136719,-22.937999725341797 C-34.62699890136719,-22.937999725341797 -34.62699890136719,-21 -34.62699890136719,-21 C-34.62699890136719,-21 -32.68899917602539,-21 -32.68899917602539,-21 C-32.68899917602539,-21 -30.75200080871582,-21 -30.75200080871582,-21 C-30.75200080871582,-21 -28.81399917602539,-21 -28.81399917602539,-21 C-28.81399917602539,-21 -26.87700080871582,-21 -26.87700080871582,-21z">
                    </path>
                </g>
                <g opacity="1" transform="matrix(1,0,0,1,0,0)">
                    <path fill="rgb(53,255,0)" fill-opacity="1"
                        d=" M-51.821998596191406,-28.75 C-51.821998596191406,-28.75 -53.7599983215332,-28.75 -53.7599983215332,-28.75 C-53.7599983215332,-28.75 -55.696998596191406,-28.75 -55.696998596191406,-28.75 C-55.696998596191406,-28.75 -55.696998596191406,-30.687999725341797 -55.696998596191406,-30.687999725341797 C-55.696998596191406,-30.687999725341797 -55.696998596191406,-32.625 -55.696998596191406,-32.625 C-55.696998596191406,-32.625 -53.7599983215332,-32.625 -53.7599983215332,-32.625 C-53.7599983215332,-32.625 -51.821998596191406,-32.625 -51.821998596191406,-32.625 C-51.821998596191406,-32.625 -51.821998596191406,-34.5620002746582 -51.821998596191406,-34.5620002746582 C-51.821998596191406,-34.5620002746582 -51.821998596191406,-36.5 -51.821998596191406,-36.5 C-51.821998596191406,-36.5 -49.8849983215332,-36.5 -49.8849983215332,-36.5 C-49.8849983215332,-36.5 -47.946998596191406,-36.5 -47.946998596191406,-36.5 C-47.946998596191406,-36.5 -47.946998596191406,-34.5620002746582 -47.946998596191406,-34.5620002746582 C-47.946998596191406,-34.5620002746582 -47.946998596191406,-32.625 -47.946998596191406,-32.625 C-47.946998596191406,-32.625 -47.946998596191406,-30.687999725341797 -47.946998596191406,-30.687999725341797 C-47.946998596191406,-30.687999725341797 -47.946998596191406,-28.75 -47.946998596191406,-28.75 C-47.946998596191406,-28.75 -49.8849983215332,-28.75 -49.8849983215332,-28.75 C-49.8849983215332,-28.75 -51.821998596191406,-28.75 -51.821998596191406,-28.75z M-44.071998596191406,-21 C-44.071998596191406,-21 -44.071998596191406,-22.937999725341797 -44.071998596191406,-22.937999725341797 C-44.071998596191406,-22.937999725341797 -44.071998596191406,-24.875 -44.071998596191406,-24.875 C-44.071998596191406,-24.875 -42.1349983215332,-24.875 -42.1349983215332,-24.875 C-42.1349983215332,-24.875 -42.1349983215332,-26.812000274658203 -42.1349983215332,-26.812000274658203 C-42.1349983215332,-26.812000274658203 -42.1349983215332,-28.75 -42.1349983215332,-28.75 C-42.1349983215332,-28.75 -44.071998596191406,-28.75 -44.071998596191406,-28.75 C-44.071998596191406,-28.75 -44.071998596191406,-30.687999725341797 -44.071998596191406,-30.687999725341797 C-44.071998596191406,-30.687999725341797 -44.071998596191406,-32.625 -44.071998596191406,-32.625 C-44.071998596191406,-32.625 -44.071998596191406,-34.5620002746582 -44.071998596191406,-34.5620002746582 C-44.071998596191406,-34.5620002746582 -44.071998596191406,-36.5 -44.071998596191406,-36.5 C-44.071998596191406,-36.5 -44.071998596191406,-38.4379997253418 -44.071998596191406,-38.4379997253418 C-44.071998596191406,-38.4379997253418 -44.071998596191406,-40.375 -44.071998596191406,-40.375 C-44.071998596191406,-40.375 -44.071998596191406,-42.3120002746582 -44.071998596191406,-42.3120002746582 C-44.071998596191406,-42.3120002746582 -44.071998596191406,-44.25 -44.071998596191406,-44.25 C-44.071998596191406,-44.25 -46.0099983215332,-44.25 -46.0099983215332,-44.25 C-46.0099983215332,-44.25 -47.946998596191406,-44.25 -47.946998596191406,-44.25 C-47.946998596191406,-44.25 -47.946998596191406,-42.3120002746582 -47.946998596191406,-42.3120002746582 C-47.946998596191406,-42.3120002746582 -47.946998596191406,-40.375 -47.946998596191406,-40.375 C-47.946998596191406,-40.375 -49.8849983215332,-40.375 -49.8849983215332,-40.375 C-49.8849983215332,-40.375 -51.821998596191406,-40.375 -51.821998596191406,-40.375 C-51.821998596191406,-40.375 -51.821998596191406,-38.4379997253418 -51.821998596191406,-38.4379997253418 C-51.821998596191406,-38.4379997253418 -51.821998596191406,-36.5 -51.821998596191406,-36.5 C-51.821998596191406,-36.5 -53.7599983215332,-36.5 -53.7599983215332,-36.5 C-53.7599983215332,-36.5 -55.696998596191406,-36.5 -55.696998596191406,-36.5 C-55.696998596191406,-36.5 -55.696998596191406,-34.5620002746582 -55.696998596191406,-34.5620002746582 C-55.696998596191406,-34.5620002746582 -55.696998596191406,-32.625 -55.696998596191406,-32.625 C-55.696998596191406,-32.625 -57.6349983215332,-32.625 -57.6349983215332,-32.625 C-57.6349983215332,-32.625 -59.571998596191406,-32.625 -59.571998596191406,-32.625 C-59.571998596191406,-32.625 -59.571998596191406,-30.687999725341797 -59.571998596191406,-30.687999725341797 C-59.571998596191406,-30.687999725341797 -59.571998596191406,-28.75 -59.571998596191406,-28.75 C-59.571998596191406,-28.75 -59.571998596191406,-26.812000274658203 -59.571998596191406,-26.812000274658203 C-59.571998596191406,-26.812000274658203 -59.571998596191406,-24.875 -59.571998596191406,-24.875 C-59.571998596191406,-24.875 -57.6349983215332,-24.875 -57.6349983215332,-24.875 C-57.6349983215332,-24.875 -55.696998596191406,-24.875 -55.696998596191406,-24.875 C-55.696998596191406,-24.875 -53.7599983215332,-24.875 -53.7599983215332,-24.875 C-53.7599983215332,-24.875 -51.821998596191406,-24.875 -51.821998596191406,-24.875 C-51.821998596191406,-24.875 -49.8849983215332,-24.875 -49.8849983215332,-24.875 C-49.8849983215332,-24.875 -47.946998596191406,-24.875 -47.946998596191406,-24.875 C-47.946998596191406,-24.875 -47.946998596191406,-22.937999725341797 -47.946998596191406,-22.937999725341797 C-47.946998596191406,-22.937999725341797 -47.946998596191406,-21 -47.946998596191406,-21 C-47.946998596191406,-21 -46.0099983215332,-21 -46.0099983215332,-21 C-46.0099983215332,-21 -44.071998596191406,-21 -44.071998596191406,-21z">
                    </path>
                </g>
            </g>
        </g>
    </g>
</svg>